<svg width="37" height="37" viewBox="0 0 37 37" fill="none" xmlns="http://www.w3.org/2000/svg">
<mask id="mask0" style="mask-type:alpha" maskUnits="userSpaceOnUse" x="3" y="0" width="31" height="37">
<path fill-rule="evenodd" clip-rule="evenodd" d="M20.0724 18.4722L32.6524 31.0522C33.5219 31.9217 33.5219 33.3277 32.6524 34.1879L30.5619 36.2784C29.6924 37.1479 28.2864 37.1479 27.4262 36.2784L18.4999 27.3707L9.58294 36.2877C8.71344 37.1572 7.30744 37.1572 6.44719 36.2877L4.34744 34.1972C3.47794 33.3277 3.47794 31.9217 4.34744 31.0614L16.9274 18.4814C17.7969 17.6027 19.2029 17.6027 20.0724 18.4722ZM16.9274 0.712184L4.34744 13.2922C3.47794 14.1617 3.47794 15.5677 4.34744 16.4279L6.43794 18.5184C7.30744 19.3879 8.71344 19.3879 9.57369 18.5184L18.4907 9.60143L27.4077 18.5184C28.2772 19.3879 29.6832 19.3879 30.5434 18.5184L32.6339 16.4279C33.5034 15.5584 33.5034 14.1524 32.6339 13.2922L20.0539 0.712184C19.2029 -0.157316 17.7969 -0.157316 16.9274 0.712184Z" fill="white"/>
</mask>
<g mask="url(#mask0)">
<rect width="37" height="37" fill="#25A2B7"/>
<path d="M18.5 12L37.9856 37.5H-0.985571L18.5 12Z" fill="#007BFF"/>
</g>
</svg>
