<svg width="37" height="37" viewBox="0 0 37 37" fill="none" xmlns="http://www.w3.org/2000/svg">
<mask id="mask0" style="mask-type:alpha" maskUnits="userSpaceOnUse" x="0" y="0" width="37" height="37">
<path fill-rule="evenodd" clip-rule="evenodd" d="M37 18.5C37 28.7173 28.7173 37 18.5 37C8.2827 37 0 28.7173 0 18.5C0 8.2827 8.2827 0 18.5 0C28.7173 0 37 8.2827 37 18.5ZM16.36 28.2956L30.0858 14.5698C30.5519 14.1037 30.5519 13.348 30.0858 12.8819L28.3979 11.194C27.9318 10.7278 27.1761 10.7278 26.7099 11.194L15.516 22.3878L10.2898 17.1617C9.82374 16.6956 9.068 16.6956 8.60184 17.1617L6.91394 18.8496C6.44786 19.3156 6.44786 20.0714 6.91394 20.5375L14.672 28.2955C15.1382 28.7617 15.8938 28.7617 16.36 28.2956V28.2956Z" fill="white"/>
</mask>
<g mask="url(#mask0)">
<rect width="37" height="37" fill="#007BFF"/>
<rect x="-1" width="20" height="37" fill="#25A2B7"/>
</g>
</svg>
