<svg width="37" height="37" viewBox="0 0 37 37" fill="none" xmlns="http://www.w3.org/2000/svg">
<mask id="mask0" style="mask-type:alpha" maskUnits="userSpaceOnUse" x="0" y="3" width="37" height="31">
<path fill-rule="evenodd" clip-rule="evenodd" d="M29.6175 14.777L29.1442 15.6024C28.9711 15.9084 28.6016 16.0354 28.2726 15.9141C27.5915 15.6602 26.9681 15.2965 26.4197 14.8405C26.1542 14.6212 26.0849 14.2344 26.2581 13.9343L26.7314 13.1088C26.3331 12.6471 26.0214 12.1102 25.8136 11.5273H24.8612C24.5149 11.5273 24.2147 11.279 24.157 10.9327C24.0416 10.24 24.0358 9.51274 24.157 8.79122C24.2147 8.44488 24.5149 8.1909 24.8612 8.1909H25.8136C26.0214 7.60791 26.3331 7.07109 26.7314 6.60931L26.2581 5.78388C26.0849 5.48373 26.1484 5.09699 26.4197 4.87764C26.9681 4.42164 27.5973 4.05799 28.2726 3.80401C28.6016 3.68279 28.9711 3.80978 29.1442 4.11571L29.6175 4.94114C30.2236 4.83147 30.8413 4.83147 31.4473 4.94114L31.9207 4.11571C32.0938 3.80978 32.4633 3.68279 32.7923 3.80401C33.4734 4.05799 34.0968 4.42164 34.6452 4.87764C34.9107 5.09699 34.9799 5.48373 34.8068 5.78388L34.3335 6.60931C34.7317 7.07109 35.0434 7.60791 35.2512 8.1909H36.2037C36.55 8.1909 36.8502 8.43911 36.9079 8.78544C37.0233 9.47811 37.0291 10.2054 36.9079 10.9269C36.8502 11.2733 36.55 11.5273 36.2037 11.5273H35.2512C35.0434 12.1102 34.7317 12.6471 34.3335 13.1088L34.8068 13.9343C34.9799 14.2344 34.9165 14.6212 34.6452 14.8405C34.0968 15.2965 33.4676 15.6602 32.7923 15.9141C32.4633 16.0354 32.0938 15.9084 31.9207 15.6024L31.4473 14.777C30.847 14.8867 30.2236 14.8867 29.6175 14.777V14.777ZM29.0116 11.383C31.2339 13.0916 33.7679 10.5576 32.0594 8.33525C29.837 6.62089 27.303 9.16068 29.0116 11.383V11.383ZM22.3563 20.2664L24.3015 21.2361C24.8845 21.5709 25.1385 22.2809 24.9076 22.9159C24.3939 24.3127 23.3837 25.5942 22.4486 26.714C22.0215 27.2277 21.2827 27.3547 20.6997 27.0199L19.0199 26.0502C18.0964 26.841 17.0227 27.4702 15.851 27.88V29.8195C15.851 30.489 15.3719 31.0663 14.7139 31.1817C13.2939 31.4241 11.8046 31.4357 10.3327 31.1817C9.66892 31.0663 9.17828 30.4948 9.17828 29.8195V27.88C8.00652 27.4644 6.93289 26.841 6.00933 26.0502L4.32961 27.0141C3.75239 27.3489 3.00777 27.2219 2.58062 26.7082C1.64552 25.5884 0.658471 24.307 0.144743 22.9159C-0.0861466 22.2867 0.167832 21.5767 0.750827 21.2361L2.67298 20.2664C2.44786 19.06 2.44786 17.819 2.67298 16.6068L0.750827 15.6313C0.167832 15.2965 -0.0919188 14.5865 0.144743 13.9574C0.658471 12.5605 1.64552 11.279 2.58062 10.1592C3.00777 9.6455 3.74661 9.51851 4.32961 9.8533L6.00933 10.823C6.93289 10.0322 8.00652 9.40307 9.17828 8.99324V7.048C9.17828 6.38419 9.65161 5.80697 10.3096 5.69152C11.7296 5.44909 13.2246 5.43755 14.6965 5.68575C15.3603 5.8012 15.851 6.37265 15.851 7.048V8.98747C17.0227 9.40307 18.0964 10.0265 19.0199 10.8173L20.6997 9.84753C21.2769 9.51274 22.0215 9.63973 22.4486 10.1535C23.3837 11.2733 24.365 12.5547 24.8788 13.9516C25.1096 14.5808 24.8845 15.2907 24.3015 15.6313L22.3563 16.601C22.5814 17.8132 22.5814 19.0542 22.3563 20.2664ZM15.5681 21.4844C18.9853 17.0398 13.9115 11.966 9.46689 15.3831C6.04973 19.8278 11.1235 24.9015 15.5681 21.4844ZM29.6175 32.0302L29.1442 32.8556C28.9711 33.1615 28.6016 33.2885 28.2726 33.1673C27.5915 32.9133 26.9681 32.5497 26.4197 32.0937C26.1542 31.8743 26.0849 31.4876 26.2581 31.1874L26.7314 30.362C26.3331 29.9002 26.0214 29.3634 25.8136 28.7804H24.8612C24.5149 28.7804 24.2147 28.5322 24.157 28.1859C24.0416 27.4932 24.0358 26.7659 24.157 26.0444C24.2147 25.698 24.5149 25.444 24.8612 25.444H25.8136C26.0214 24.8611 26.3331 24.3242 26.7314 23.8625L26.2581 23.037C26.0849 22.7369 26.1484 22.3501 26.4197 22.1308C26.9681 21.6748 27.5973 21.3111 28.2726 21.0572C28.6016 20.9359 28.9711 21.0629 29.1442 21.3689L29.6175 22.1943C30.2236 22.0846 30.8413 22.0846 31.4473 22.1943L31.9207 21.3689C32.0938 21.0629 32.4633 20.9359 32.7923 21.0572C33.4734 21.3111 34.0968 21.6748 34.6452 22.1308C34.9107 22.3501 34.9799 22.7369 34.8068 23.037L34.3335 23.8625C34.7317 24.3242 35.0434 24.8611 35.2512 25.444H36.2037C36.55 25.444 36.8502 25.6923 36.9079 26.0386C37.0233 26.7313 37.0291 27.4586 36.9079 28.1801C36.8502 28.5264 36.55 28.7804 36.2037 28.7804H35.2512C35.0434 29.3634 34.7317 29.9002 34.3335 30.362L34.8068 31.1874C34.9799 31.4876 34.9165 31.8743 34.6452 32.0937C34.0968 32.5497 33.4676 32.9133 32.7923 33.1673C32.4633 33.2885 32.0938 33.1615 31.9207 32.8556L31.4473 32.0302C30.847 32.1398 30.2236 32.1398 29.6175 32.0302ZM29.0116 28.6304C31.2339 30.3389 33.7679 27.8049 32.0594 25.5826C29.837 23.874 27.303 26.4081 29.0116 28.6304V28.6304Z" fill="white"/>
</mask>
<g mask="url(#mask0)">
<rect width="37" height="37" fill="#242A42"/>
<circle cx="12.5" cy="18.5" r="13.5" fill="#25A2B7"/>
<circle cx="31" cy="27" r="7" fill="#007BFF"/>
<ellipse cx="30.5" cy="10" rx="6.5" ry="7" fill="#30A64A"/>
</g>
</svg>
