<svg width="48" height="48" viewBox="0 0 48 48" fill="none" xmlns="http://www.w3.org/2000/svg">
<circle cx="24" cy="24" r="24" fill="white"/>
<path d="M31.0714 23.9999C31.0714 27.2872 28.058 30.2142 24 30.2142C19.942 30.2142 16.9286 27.2872 16.9286 23.9999C16.9286 20.7126 19.942 17.7856 24 17.7856C28.058 17.7856 31.0714 20.7126 31.0714 23.9999Z" stroke="#30A64A" stroke-width="3"/>
<path d="M38.7857 23.9999C38.7857 31.0665 32.3272 37.0713 24 37.0713C15.6728 37.0713 9.21429 31.0665 9.21429 23.9999C9.21429 16.9333 15.6728 10.9285 24 10.9285C32.3272 10.9285 38.7857 16.9333 38.7857 23.9999Z" stroke="#30A64A" stroke-width="3"/>
<path d="M23.1429 24.4286L6.42857 35.192L6.42857 13.6651L23.1429 24.4286Z" fill="white"/>
<path d="M24.8571 24.4286L41.5714 13.6651L41.5714 35.1921L24.8571 24.4286Z" fill="white"/>
<ellipse cx="24" cy="23.9999" rx="2.57143" ry="1.71429" fill="#30A64A"/>
</svg>
