<?xml version="1.0" encoding="utf-8"?>
<!-- Generator: Adobe Illustrator 23.0.6, SVG Export Plug-In . SVG Version: 6.00 Build 0)  -->
<svg version="1.1" id="Layer_1" xmlns="http://www.w3.org/2000/svg" xmlns:xlink="http://www.w3.org/1999/xlink" x="0px" y="0px"
	 viewBox="0 0 341.5 154.8" style="enable-background:new 0 0 341.5 154.8;" xml:space="preserve">
<style type="text/css">
	.st0{clip-path:url(#SVGID_2_);fill:#F3F5F9;}
	.st1{clip-path:url(#SVGID_2_);fill:#0069FF;}
	.st2{clip-path:url(#SVGID_2_);}
	.st3{fill:#0069FF;}
	.st4{fill-rule:evenodd;clip-rule:evenodd;fill:#0069FF;}
	.st5{fill:none;stroke:#D1D3D4;stroke-miterlimit:10;}
</style>
<g>
	<g>
		<defs>
			<path id="SVGID_1_" d="M341,149.2c0,2.8-2.3,5-5,5H5.5c-2.8,0-5-2.3-5-5V5.5c0-2.8,2.3-5,5-5H336c2.8,0,5,2.3,5,5V149.2z"/>
		</defs>
		<clipPath id="SVGID_2_">
			<use xlink:href="#SVGID_1_"  style="overflow:visible;"/>
		</clipPath>
		<rect x="35.9" y="0.3" class="st0" width="305.3" height="154.4"/>
		<rect x="0.3" y="0.3" class="st1" width="42" height="154.4"/>
		<g class="st2">
			<path class="st3" d="M129.1,104.3v12.1h-3.6V83.5H137c7.4,0,12,4.1,12,10.4c0,6.3-4.6,10.4-12,10.4H129.1z M129.1,86.8v14.1h8.4
				c4.7,0,7.9-2.3,7.9-7c0-4.6-3.1-7-7.9-7H129.1z"/>
			<path class="st3" d="M151.9,109.9c0-4.6,3.6-7.2,8.5-7.2c2.3,0,4.4,0.6,6.3,1.1v-2.3c0-3.6-2.4-5.4-5.7-5.4c-3,0-5.2,1.8-6,3.8
				l-2.4-2.3c1.8-3.2,4.9-4.8,8.5-4.8c5.4,0,9.1,3.1,9.1,9v14.6h-3.4V114c-1.5,1.6-3.9,2.9-7.1,2.9
				C155.4,116.9,151.9,114.5,151.9,109.9z M159.8,113.8c3,0,5.5-1.7,6.9-3.7V107c-1.8-0.6-3.9-1.1-6.1-1.1c-3.7,0-5.2,1.8-5.2,4.1
				C155.3,112.4,157.3,113.8,159.8,113.8z"/>
			<path class="st3" d="M188.6,96.4c0,0-0.4,0-0.8,0c-5.4,0-7.7,2.7-7.7,10.2v9.8h-3.5v-23h3.4v3.1c2.1-2.6,4.2-3.4,7.5-3.4
				c0.2,0,0.5,0,1,0V96.4z"/>
			<path class="st3" d="M195.2,109.6V96.6h-3.8v-3.2h3.8v-6.4h3.5v6.4h5.4v3.2h-5.4v12.5c0,2.8,0.6,4.2,3.5,4.2c0.5,0,1.8,0,1.8,0
				v3.1c0,0-0.9,0.1-2.2,0.1C197.5,116.5,195.2,114.7,195.2,109.6z"/>
			<path class="st3" d="M212.3,96.2c1.5-2,4.3-3.4,7.3-3.4c5.9,0,9.2,3.7,9.2,10.2v13.4h-3.5v-13.7c0-4.3-2.2-6.7-5.9-6.7
				c-4.6,0-6.9,3.5-6.9,8.9v11.4h-3.5v-23h3.4V96.2z"/>
			<path class="st3" d="M237.6,106c0.3,4.8,3.2,7.7,7.7,7.7c2.7,0,4.8-1.2,6.6-3.4l2.4,2.2c-2.1,2.5-4.8,4.4-9,4.4
				c-6.9,0-11.3-4.9-11.3-11.9c0-6.7,3.9-12.2,10.5-12.2c7.5,0,10.3,6.2,10.3,11.5c0,0.8,0,1.6,0,1.6H237.6z M237.7,102.9h13.5
				c-0.3-4-2.8-6.8-6.7-6.8C240.6,96.1,238.3,99.1,237.7,102.9z"/>
			<path class="st3" d="M272.3,96.4c0,0-0.4,0-0.8,0c-5.4,0-7.7,2.7-7.7,10.2v9.8h-3.5v-23h3.4v3.1c2.1-2.6,4.2-3.4,7.5-3.4
				c0.2,0,0.5,0,1,0V96.4z"/>
		</g>
		<g class="st2">
			<g>
				<g id="XMLID_680_">
					<g id="XMLID_681_">
						<g>
							<g id="XMLID_44_">
								<g id="XMLID_48_">
									<path id="XMLID_49_" class="st3" d="M90.5,72.2l0-7.7c8.1,0,14.4-8.1,11.3-16.6c-1.2-3.2-3.7-5.7-6.8-6.8
										c-8.6-3.1-16.6,3.2-16.6,11.3l0,0l-7.7,0c0-13,12.5-23.1,26.1-18.8c5.9,1.9,10.7,6.6,12.5,12.5
										C113.5,59.7,103.4,72.2,90.5,72.2z"/>
								</g>
								<polygon id="XMLID_47_" class="st4" points="90.5,64.6 82.9,64.6 82.9,56.9 82.9,56.9 90.5,56.9 90.5,56.9 								"/>
								<polygon id="XMLID_46_" class="st4" points="82.9,70.4 77,70.4 77,70.4 77,64.6 82.9,64.6 82.9,70.4 								"/>
								<polygon id="XMLID_45_" class="st4" points="77,64.6 72.1,64.6 72.1,64.6 72.1,59.7 72.1,59.7 77,59.7 77,59.7 								"/>
							</g>
						</g>
					</g>
				</g>
				<g>
					<path id="XMLID_677_" class="st3" d="M141.2,44.1c-2.3-1.6-5.1-2.4-8.4-2.4h-7.2v22.8h7.2c3.3,0,6.1-0.8,8.4-2.5
						c1.2-0.9,2.2-2.1,2.9-3.7c0.7-1.5,1-3.3,1-5.4c0-2-0.3-3.8-1-5.3C143.4,46.1,142.4,44.9,141.2,44.1z M129.8,45.6h2.3
						c2.5,0,4.6,0.5,6.1,1.5c1.7,1,2.6,3,2.6,5.9c0,3-0.9,5-2.6,6.2h0c-1.5,1-3.5,1.5-6.1,1.5h-2.3V45.6z"/>
					<path id="XMLID_676_" class="st3" d="M149.8,41.4c-0.7,0-1.3,0.2-1.8,0.7c-0.5,0.5-0.7,1-0.7,1.7c0,0.7,0.2,1.3,0.7,1.8
						c0.5,0.5,1.1,0.7,1.8,0.7c0.7,0,1.3-0.2,1.8-0.7c0.5-0.5,0.7-1.1,0.7-1.8c0-0.7-0.2-1.3-0.7-1.7
						C151,41.7,150.4,41.4,149.8,41.4z"/>
					<rect id="XMLID_675_" x="147.7" y="48.4" class="st3" width="4" height="16"/>
					<path id="XMLID_672_" class="st3" d="M165.7,49.8c-1.2-1.1-2.6-1.7-4-1.7c-2.2,0-4.1,0.8-5.5,2.3c-1.4,1.5-2.2,3.4-2.2,5.8
						c0,2.3,0.7,4.2,2.1,5.7c1.4,1.5,3.3,2.3,5.5,2.3c1.6,0,2.9-0.4,4-1.3v0.4c0,1.3-0.4,2.4-1.1,3.1c-0.7,0.7-1.7,1.1-2.9,1.1
						c-1.9,0-3-0.7-4.5-2.7l-2.7,2.6l0.1,0.1c0.6,0.8,1.5,1.6,2.7,2.4c1.2,0.8,2.7,1.2,4.5,1.2c2.4,0,4.3-0.7,5.8-2.2
						c1.4-1.5,2.2-3.4,2.2-5.8V48.4h-4V49.8z M164.7,59.2c-0.7,0.8-1.6,1.2-2.8,1.2c-1.2,0-2.1-0.4-2.8-1.2c-0.7-0.8-1-1.9-1-3.1
						c0-1.3,0.4-2.4,1-3.2c0.7-0.8,1.6-1.2,2.8-1.2c1.2,0,2.1,0.4,2.8,1.2c0.7,0.8,1.1,1.9,1.1,3.2
						C165.7,57.4,165.4,58.5,164.7,59.2z"/>
					<rect id="XMLID_671_" x="172.8" y="48.4" class="st3" width="4" height="16"/>
					<path id="XMLID_670_" class="st3" d="M174.9,41.4c-0.7,0-1.3,0.2-1.8,0.7c-0.5,0.5-0.7,1-0.7,1.7c0,0.7,0.2,1.3,0.7,1.8
						c0.5,0.5,1.1,0.7,1.8,0.7c0.7,0,1.3-0.2,1.8-0.7c0.5-0.5,0.7-1.1,0.7-1.8c0-0.7-0.2-1.3-0.7-1.7
						C176.2,41.7,175.6,41.4,174.9,41.4z"/>
					<path id="XMLID_669_" class="st3" d="M185.4,44.1h-4v4.3h-2.3v3.7h2.3v6.7c0,2.1,0.4,3.6,1.2,4.4c0.8,0.9,2.3,1.3,4.3,1.3
						c0.7,0,1.3,0,2-0.1l0.2,0v-3.7l-1.4,0.1c-1,0-1.6-0.2-1.9-0.5c-0.3-0.3-0.5-1.1-0.5-2.1v-6.1h3.8v-3.7h-3.8V44.1z"/>
					<rect id="XMLID_668_" x="207.4" y="41.7" class="st3" width="4" height="22.8"/>
					<path id="XMLID_667_" class="st3" d="M250.8,58.7c-0.7,0.8-1.5,1.5-2,1.9v0c-0.6,0.4-1.3,0.5-2.1,0.5c-1.2,0-2.1-0.4-2.9-1.3
						c-0.8-0.9-1.2-2-1.2-3.4s0.4-2.5,1.2-3.4c0.8-0.9,1.7-1.3,2.9-1.3c1.3,0,2.7,0.8,3.8,2.2l2.7-2.6l0,0c-1.7-2.3-4-3.3-6.6-3.3
						c-2.2,0-4.1,0.8-5.7,2.4c-1.6,1.6-2.4,3.6-2.4,6s0.8,4.4,2.4,6c1.6,1.6,3.5,2.4,5.7,2.4c2.9,0,5.3-1.3,6.9-3.6L250.8,58.7z"/>
					<path id="XMLID_664_" class="st3" d="M267.9,50.7c-0.6-0.8-1.4-1.4-2.3-1.9c-1-0.5-2.1-0.7-3.3-0.7c-2.3,0-4.1,0.8-5.5,2.5
						c-1.3,1.6-2,3.7-2,6c0,2.4,0.7,4.4,2.2,6c1.5,1.5,3.4,2.3,5.8,2.3c2.7,0,5-1.1,6.6-3.3l0.1-0.1l-2.6-2.5l0,0
						c-0.2,0.3-0.6,0.6-0.9,0.9c-0.4,0.4-0.8,0.7-1.2,0.9c-0.6,0.3-1.3,0.4-2,0.4c-1.1,0-2-0.3-2.8-1c-0.7-0.6-1-1.4-1.2-2.4h10.7
						l0-1.5c0-1-0.1-2-0.4-3C268.9,52.3,268.5,51.5,267.9,50.7z M259.1,54.5c0.2-0.8,0.5-1.4,1.1-1.9c0.5-0.5,1.3-0.8,2.1-0.8
						c1,0,1.7,0.3,2.2,0.8c0.5,0.5,0.7,1.1,0.8,1.9H259.1z"/>
					<path id="XMLID_661_" class="st3" d="M283.3,49.6L283.3,49.6c-1.2-1-2.9-1.6-5-1.6c-1.3,0-2.6,0.3-3.7,0.9
						c-1.1,0.5-2.1,1.4-2.7,2.6l0,0l2.6,2.5c1.1-1.7,2.2-2.3,3.8-2.3c0.8,0,1.5,0.2,2.1,0.7c0.5,0.4,0.8,1,0.8,1.7v0.8
						c-1-0.3-2-0.5-3-0.5c-2,0-3.6,0.5-4.9,1.4c-1.2,0.9-1.9,2.3-1.9,4c0,1.5,0.5,2.7,1.6,3.6c1,0.9,2.4,1.3,3.9,1.3
						c1.5,0,3-0.6,4.3-1.7v1.3h4V54.2C285.2,52.2,284.5,50.7,283.3,49.6z M276.1,58.3c0.5-0.3,1.1-0.5,1.9-0.5c1,0,2,0.2,3.1,0.6V60
						c-0.9,0.8-2,1.2-3.5,1.2c-0.7,0-1.2-0.2-1.6-0.5c-0.4-0.3-0.5-0.7-0.5-1.2C275.5,59.1,275.7,58.7,276.1,58.3z"/>
					<path id="XMLID_660_" class="st3" d="M300.6,50c-1.1-1.3-2.7-1.9-4.7-1.9c-1.6,0-2.9,0.5-3.9,1.4v-1h-4v16h4v-8.8
						c0-1.2,0.3-2.2,0.9-2.9c0.6-0.7,1.4-1,2.4-1c0.9,0,1.6,0.3,2.1,0.9c0.5,0.6,0.8,1.5,0.8,2.5v9.3h4v-9.3
						C302.3,53,301.7,51.2,300.6,50z"/>
					<path id="XMLID_657_" class="st3" d="M202.4,49.6L202.4,49.6c-1.2-1-2.9-1.6-5-1.6c-1.3,0-2.6,0.3-3.7,0.9
						c-1.1,0.5-2.1,1.4-2.7,2.6l0,0l2.6,2.5c1.1-1.7,2.2-2.3,3.8-2.3c0.8,0,1.5,0.2,2.1,0.7c0.5,0.4,0.8,1,0.8,1.7v0.8
						c-1-0.3-2-0.5-3-0.5c-2,0-3.6,0.5-4.9,1.4c-1.2,0.9-1.9,2.3-1.9,4c0,1.5,0.5,2.7,1.6,3.6c1,0.9,2.4,1.3,3.9,1.3
						c1.5,0,3-0.6,4.3-1.7v1.3h4V54.2C204.3,52.2,203.7,50.7,202.4,49.6z M195.3,58.3c0.5-0.3,1.1-0.5,1.9-0.5c1,0,2,0.2,3.1,0.6V60
						c-0.9,0.8-2,1.2-3.5,1.2c-0.7,0-1.2-0.2-1.6-0.5c-0.4-0.3-0.5-0.7-0.5-1.2C194.6,59.1,194.8,58.7,195.3,58.3z"/>
					<path id="XMLID_654_" class="st3" d="M225.4,64.8c-6.5,0-11.7-5.3-11.7-11.7s5.3-11.7,11.7-11.7s11.7,5.3,11.7,11.7
						S231.9,64.8,225.4,64.8z M225.4,45.5c-4.2,0-7.6,3.4-7.6,7.6s3.4,7.6,7.6,7.6c4.2,0,7.6-3.4,7.6-7.6S229.6,45.5,225.4,45.5z"/>
				</g>
			</g>
		</g>
	</g>
	<path class="st5" d="M341,149.2c0,2.8-2.3,5-5,5H5.5c-2.8,0-5-2.3-5-5V5.5c0-2.8,2.3-5,5-5H336c2.8,0,5,2.3,5,5V149.2z"/>
</g>
</svg>
