<svg width="158" height="51" viewBox="0 0 158 51" fill="none" xmlns="http://www.w3.org/2000/svg">
<path d="M53.3416 26.2876C56.9851 26.2876 59.4396 24.5138 60.0149 21.7812L56.2372 21.532C55.8249 22.6538 54.7702 23.2386 53.4087 23.2386C51.3665 23.2386 50.0721 21.8867 50.0721 19.6911V19.6815H60.1012V18.5597C60.1012 13.5547 57.0714 11.081 53.1786 11.081C48.8448 11.081 46.0355 14.1587 46.0355 18.7035C46.0355 23.3729 48.8065 26.2876 53.3416 26.2876ZM50.0721 17.1502C50.1584 15.4723 51.4336 14.13 53.2457 14.13C55.0195 14.13 56.2468 15.3956 56.2564 17.1502H50.0721ZM65.9427 11.2727H61.724L65.9427 18.6364L61.5706 26H65.7893L68.6466 20.9087L71.5518 26H75.7226L71.3408 18.6364L75.6075 11.2727H71.4175L68.6466 16.4215L65.9427 11.2727ZM84.1337 26.2876C88.0552 26.2876 90.5194 23.9865 90.7111 20.6019H86.8567C86.617 22.1744 85.5815 23.0565 84.1816 23.0565C82.2736 23.0565 81.0368 21.4553 81.0368 18.6364C81.0368 15.8558 82.2832 14.2642 84.1816 14.2642C85.6774 14.2642 86.6362 15.2518 86.8567 16.7188H90.7111C90.5385 13.315 87.9593 11.081 84.1145 11.081C79.6465 11.081 76.8851 14.1779 76.8851 18.6939C76.8851 23.1715 79.5985 26.2876 84.1337 26.2876ZM100.038 26.2876C103.681 26.2876 106.136 24.5138 106.711 21.7812L102.934 21.532C102.521 22.6538 101.467 23.2386 100.105 23.2386C98.0628 23.2386 96.7684 21.8867 96.7684 19.6911V19.6815H106.797V18.5597C106.797 13.5547 103.768 11.081 99.8749 11.081C95.5411 11.081 92.7318 14.1587 92.7318 18.7035C92.7318 23.3729 95.5028 26.2876 100.038 26.2876ZM96.7684 17.1502C96.8547 15.4723 98.1299 14.13 99.942 14.13C101.716 14.13 102.943 15.3956 102.953 17.1502H96.7684ZM121.717 15.4723C121.352 12.7589 119.166 11.081 115.446 11.081C111.678 11.081 109.195 12.826 109.204 15.6641C109.195 17.8693 110.585 19.2979 113.461 19.8732L116.012 20.3814C117.296 20.6403 117.881 21.1101 117.9 21.8484C117.881 22.7209 116.932 23.3441 115.503 23.3441C114.046 23.3441 113.078 22.7209 112.828 21.5224L108.811 21.7333C109.195 24.5522 111.592 26.2876 115.494 26.2876C119.31 26.2876 122.043 24.3413 122.052 21.4361C122.043 19.3075 120.652 18.0323 117.795 17.4474L115.13 16.9105C113.758 16.6133 113.25 16.1435 113.26 15.4339C113.25 14.5518 114.247 13.9766 115.513 13.9766C116.932 13.9766 117.776 14.7532 117.977 15.7024L121.717 15.4723ZM136.878 15.4723C136.513 12.7589 134.327 11.081 130.607 11.081C126.839 11.081 124.356 12.826 124.365 15.6641C124.356 17.8693 125.746 19.2979 128.622 19.8732L131.173 20.3814C132.458 20.6403 133.042 21.1101 133.062 21.8484C133.042 22.7209 132.093 23.3441 130.665 23.3441C129.207 23.3441 128.239 22.7209 127.99 21.5224L123.972 21.7333C124.356 24.5522 126.753 26.2876 130.655 26.2876C134.471 26.2876 137.204 24.3413 137.213 21.4361C137.204 19.3075 135.813 18.0323 132.956 17.4474L130.291 16.9105C128.92 16.6133 128.411 16.1435 128.421 15.4339C128.411 14.5518 129.409 13.9766 130.674 13.9766C132.093 13.9766 132.937 14.7532 133.138 15.7024L136.878 15.4723ZM57.5028 38.571C56.7933 36.4808 55.2017 35.081 52.2869 35.081C49.1804 35.081 46.8793 36.8452 46.8793 39.3381C46.8793 41.3707 48.0874 42.7322 50.7912 43.3651L53.2457 43.9403C54.7319 44.2855 55.4318 44.995 55.4318 46.0114C55.4318 47.277 54.0895 48.3125 51.9801 48.3125C50.1296 48.3125 48.9695 47.5167 48.5668 45.9347L46.419 46.4716C46.9464 48.9741 49.0078 50.3068 52.0185 50.3068C55.4414 50.3068 57.7713 48.4371 57.7713 45.8963C57.7713 43.8445 56.4865 42.5501 53.8594 41.9077L51.6733 41.3707C49.9283 40.9393 49.142 40.3544 49.142 39.223C49.142 37.9574 50.4844 37.0369 52.2869 37.0369C54.2621 37.0369 55.0771 38.13 55.4702 39.1463L57.5028 38.571ZM67.1604 50.3068C71.1491 50.3068 73.8337 47.277 73.8337 42.7131C73.8337 38.1108 71.1491 35.081 67.1604 35.081C63.1718 35.081 60.4871 38.1108 60.4871 42.7131C60.4871 47.277 63.1718 50.3068 67.1604 50.3068ZM67.1604 48.2741C64.1306 48.2741 62.7499 45.6662 62.7499 42.7131C62.7499 39.7599 64.1306 37.1136 67.1604 37.1136C70.1903 37.1136 71.5709 39.7599 71.5709 42.7131C71.5709 45.6662 70.1903 48.2741 67.1604 48.2741ZM83.8461 35.2727H80.5478V33.777C80.5478 32.3196 81.1614 31.5526 82.6571 31.5526C83.3091 31.5526 83.6926 31.706 83.9228 31.7827L84.5748 29.8267C84.2296 29.6733 83.5392 29.4432 82.427 29.4432C80.3176 29.4432 78.285 30.7088 78.285 33.2401V35.2727H75.9071V37.1903H78.285V50H80.5478V37.1903H83.8461V35.2727ZM93.4221 35.2727H90.2773V31.7443H88.0145V35.2727H85.79V37.1903H88.0145V46.3949C88.0145 48.9645 90.0855 50.1918 92.0031 50.1918C92.8469 50.1918 93.3838 50.0384 93.6906 49.9233L93.2304 47.8906C93.0386 47.929 92.7318 48.0057 92.2332 48.0057C91.2361 48.0057 90.2773 47.6989 90.2773 45.7812V37.1903H93.4221V35.2727ZM100.163 50H102.387L105.609 38.6861H105.839L109.06 50H111.285L115.772 35.2727H113.394L110.211 46.5099H110.057L106.951 35.2727H104.535L101.39 46.5483H101.236L98.0532 35.2727H95.6753L100.163 50ZM123.097 50.3452C125.667 50.3452 127.009 48.9645 127.469 48.0057H127.584V50H129.847V40.2969C129.847 35.6179 126.28 35.081 124.401 35.081C122.177 35.081 119.646 35.848 118.495 38.5327L120.643 39.2997C121.141 38.2259 122.321 37.0753 124.478 37.0753C126.559 37.0753 127.584 38.1779 127.584 40.0668V40.1435C127.584 41.2365 126.472 41.1406 123.788 41.4858C121.055 41.8406 118.073 42.4446 118.073 45.8196C118.073 48.696 120.297 50.3452 123.097 50.3452ZM123.442 48.3125C121.64 48.3125 120.336 47.5071 120.336 45.9347C120.336 44.2088 121.908 43.6719 123.672 43.4418C124.631 43.3267 127.201 43.0582 127.584 42.598V44.669C127.584 46.5099 126.127 48.3125 123.442 48.3125ZM133.977 50H136.24V40.6804C136.24 38.6861 137.812 37.2287 139.96 37.2287C140.564 37.2287 141.188 37.3438 141.341 37.3821V35.081C141.082 35.0618 140.488 35.0426 140.152 35.0426C138.388 35.0426 136.854 36.0398 136.317 37.4972H136.163V35.2727H133.977V50ZM149.75 50.3068C152.741 50.3068 154.927 48.8111 155.618 46.5866L153.431 45.973C152.856 47.5071 151.523 48.2741 149.75 48.2741C147.094 48.2741 145.262 46.5579 145.157 43.4034H155.848V42.4446C155.848 36.9602 152.588 35.081 149.52 35.081C145.531 35.081 142.885 38.2259 142.885 42.7514C142.885 47.277 145.493 50.3068 149.75 50.3068ZM145.157 41.4474C145.31 39.1559 146.931 37.1136 149.52 37.1136C151.974 37.1136 153.547 38.9545 153.547 41.4474H145.157Z" fill="black"/>
<circle cx="10" cy="20" r="8" fill="#007BFF" stroke="#007BFF" stroke-width="4"/>
<circle cx="30" cy="20" r="8" fill="#25A2B7" stroke="#25A2B7" stroke-width="4"/>
<circle cx="30" cy="40" r="8" fill="#30A64A" stroke="#30A64A" stroke-width="4"/>
</svg>
