<svg width="37" height="37" viewBox="0 0 37 37" fill="none" xmlns="http://www.w3.org/2000/svg">
<mask id="mask0" style="mask-type:alpha" maskUnits="userSpaceOnUse" x="6" y="0" width="25" height="37">
<path fill-rule="evenodd" clip-rule="evenodd" d="M26.5937 0H10.4062C8.49121 0 6.9375 1.55371 6.9375 3.46875V33.5312C6.9375 35.4463 8.49121 37 10.4062 37H26.5937C28.5088 37 30.0625 35.4463 30.0625 33.5312V3.46875C30.0625 1.55371 28.5088 0 26.5937 0ZM18.5 34.6875C17.2209 34.6875 16.1875 33.6541 16.1875 32.375C16.1875 31.0959 17.2209 30.0625 18.5 30.0625C19.7791 30.0625 20.8125 31.0959 20.8125 32.375C20.8125 33.6541 19.7791 34.6875 18.5 34.6875ZM26.5937 26.8828C26.5937 27.3598 26.2035 27.75 25.7266 27.75H11.2734C10.7965 27.75 10.4062 27.3598 10.4062 26.8828V4.33594C10.4062 3.85898 10.7965 3.46875 11.2734 3.46875H25.7266C26.2035 3.46875 26.5937 3.85898 26.5937 4.33594V26.8828Z" fill="white"/>
</mask>
<g mask="url(#mask0)">
<rect width="37" height="37" fill="#25A2B7"/>
<rect x="7" y="-1" width="11" height="38" fill="#007BFF"/>
</g>
</svg>
