<svg width="37" height="37" viewBox="0 0 37 37" fill="none" xmlns="http://www.w3.org/2000/svg">
<mask id="mask0" style="mask-type:alpha" maskUnits="userSpaceOnUse" x="0" y="7" width="37" height="23">
<path fill-rule="evenodd" clip-rule="evenodd" d="M18.5002 12.054C15.4349 12.054 12.9502 14.9528 12.9502 18.529C12.9502 22.1045 15.4348 25.004 18.5002 25.004C21.5643 25.004 24.0502 22.1058 24.0502 18.529C24.0502 14.9528 21.5655 12.054 18.5002 12.054ZM21.2748 21.5599C21.2748 21.9921 21.0483 22.2289 20.6058 22.2289H16.7154C16.2728 22.2289 16.0463 21.9921 16.0463 21.5599V21.0453C16.0463 20.613 16.2728 20.3763 16.7154 20.3763H17.5902V18.0708C17.5902 17.7724 17.621 17.4636 17.621 17.4636H17.6004C17.6004 17.4636 17.4976 17.618 17.4358 17.6797C17.1785 17.9268 16.8285 17.9371 16.5301 17.618L16.2111 17.2578C15.9023 16.949 15.923 16.6093 16.242 16.3109L17.4977 15.1581C17.7549 14.9214 17.9813 14.8288 18.3313 14.8288H19.0311C19.4737 14.8288 19.7104 15.0552 19.7104 15.4978V20.3762H20.6058C21.0484 20.3762 21.2748 20.6129 21.2748 21.0452V21.5599H21.2748ZM35.6125 7.42896H1.3875C0.621195 7.42896 0 8.05015 0 8.81646V28.1836C0 28.9499 0.621195 29.5711 1.3875 29.5711H35.6125C36.3788 29.5711 37 28.9499 37 28.1836V8.81646C37 8.05015 36.3788 7.42896 35.6125 7.42896ZM29.5999 26.854H7.39989C7.39989 24.2997 5.32922 22.229 2.77489 22.229V14.829C5.32922 14.829 7.39989 12.7583 7.39989 10.204H29.5999C29.5999 12.7583 31.6706 14.829 34.2249 14.829V22.229C31.6706 22.229 29.5999 24.2997 29.5999 26.854Z" fill="white"/>
</mask>
<g mask="url(#mask0)">
<rect width="37" height="37" fill="#25A2B7"/>
<ellipse cx="18.5" cy="18.5" rx="5.5" ry="6.5" fill="#007BFF"/>
</g>
</svg>
