<svg width="47" height="47" viewBox="0 0 47 47" fill="none" xmlns="http://www.w3.org/2000/svg">
<circle cx="23.5" cy="23.5" r="23.5" fill="white"/>
<circle cx="23.4999" cy="23.4999" r="9.08491" stroke="#007BFF" stroke-width="4"/>
<rect x="21.283" y="9.75464" width="4.43396" height="3.54717" rx="1" fill="#007BFF"/>
<rect x="21.283" y="33.698" width="4.43396" height="3.54717" rx="1" fill="#007BFF"/>
<rect x="37.2454" y="21.283" width="4.43396" height="3.54717" rx="1" transform="rotate(90 37.2454 21.283)" fill="#007BFF"/>
<rect x="13.302" y="21.283" width="4.43396" height="3.54717" rx="1" transform="rotate(90 13.302 21.283)" fill="#007BFF"/>
<rect x="18.0593" y="14.9238" width="4.43396" height="3.54817" rx="1" transform="rotate(135 18.0593 14.9238)" fill="#007BFF"/>
<rect x="32.3994" y="18.0593" width="4.43396" height="3.54817" rx="1" transform="rotate(-135 32.3994 18.0593)" fill="#007BFF"/>
<rect x="14.9238" y="29.2642" width="4.43396" height="3.54817" rx="1" transform="rotate(45 14.9238 29.2642)" fill="#007BFF"/>
<rect x="34.9084" y="31.7729" width="4.43396" height="3.54817" rx="1" transform="rotate(135 34.9084 31.7729)" fill="#007BFF"/>
</svg>
