<svg width="37" height="37" viewBox="0 0 37 37" fill="none" xmlns="http://www.w3.org/2000/svg">
<mask id="mask0" style="mask-type:alpha" maskUnits="userSpaceOnUse" x="0" y="0" width="37" height="37">
<path fill-rule="evenodd" clip-rule="evenodd" d="M19.5045 26.348C19.6057 26.8105 19.6562 27.2875 19.6562 27.7717C19.6562 33.6396 15.7395 37 9.91484 37C2.99902 37 0 31.4427 0 25.1195C0.751562 25.6326 3.38926 27.7572 4.24199 27.7572C4.74785 27.7572 5.18145 27.4681 5.36211 26.9912C7.06758 22.4963 10.1678 21.4629 13.5209 21.3978C14.6482 23.8404 16.8523 25.7049 19.5045 26.348V26.348ZM33.2855 0C32.2449 0 31.2693 0.4625 30.525 1.13457C16.491 13.7305 15.0312 14.0268 15.0312 17.734C15.0312 21.2605 17.958 24.2812 21.5496 24.2812C25.8133 24.2812 28.2848 21.1449 36.0461 6.59062C36.552 5.60059 37 4.53105 37 3.41816C37 1.42363 35.215 0 33.2855 0Z" fill="white"/>
</mask>
<g mask="url(#mask0)">
<rect width="37" height="37" fill="#25A2B7"/>
<path d="M0 21L14 19.5L20 37H0V21Z" fill="#007BFF"/>
<rect x="14" y="24" width="6" height="9" fill="#007BFF"/>
</g>
</svg>
