<svg width="37" height="37" viewBox="0 0 37 37" fill="none" xmlns="http://www.w3.org/2000/svg">
<mask id="mask0" style="mask-type:alpha" maskUnits="userSpaceOnUse" x="0" y="0" width="37" height="37">
<path fill-rule="evenodd" clip-rule="evenodd" d="M36.4665 1.37758C36.3728 0.937622 36.0266 0.591423 35.5866 0.497661C33.2642 0 31.4467 0 29.6363 0C22.1931 0 17.7285 3.98129 14.3964 9.23197H6.88097C5.5683 9.23197 4.37103 9.97485 3.78682 11.1433L0.223859 18.2692C-0.353139 19.4232 0.483508 20.7719 1.77454 20.7719H8.63361C8.20807 21.6951 7.77532 22.6111 7.33536 23.491C7.11177 23.9382 7.19832 24.4719 7.55173 24.8253L12.1389 29.4125C12.4923 29.7659 13.026 29.8524 13.4732 29.6288C14.3531 29.1889 15.2691 28.7633 16.1923 28.3378V35.1969C16.1923 36.4807 17.5482 37.3173 18.695 36.7476L25.8137 33.1846C26.9894 32.6004 27.725 31.3959 27.725 30.0904V22.5606C32.9613 19.2212 36.957 14.7423 36.957 7.33509C36.9642 5.51754 36.9642 3.7 36.4665 1.37758ZM28.8863 11.54C26.975 11.54 25.4243 9.98927 25.4243 8.07797C25.4243 6.16666 26.975 4.61598 28.8863 4.61598C30.7976 4.61598 32.3482 6.16666 32.3482 8.07797C32.3482 9.98927 30.7976 11.54 28.8863 11.54Z" fill="white"/>
</mask>
<g mask="url(#mask0)">
<rect width="37" height="37" fill="#25A2B7"/>
<path d="M16.0869 28.1522L28.1521 22.5217V37H16.0869V28.1522Z" fill="#007BFF"/>
<path d="M-1.6084 8.8479H14.4786L8.84812 20.9131H-1.6084V8.8479Z" fill="#007BFF"/>
<path d="M3.5 21.5L8.5 21L16 28.5L6 33.5L3.5 21.5Z" fill="#30A64A"/>
</g>
</svg>
